<svg width="440" height="440" viewBox="0 0 440 440" fill="none" xmlns="http://www.w3.org/2000/svg">
<path d="M440 211.86L439.411 201.606L231.415 217.526L432.296 161.254L429.353 151.409L230.621 214.962L413.153 113.775L408.034 104.879L229.29 212.629L383.592 72.013L376.554 64.5528L227.448 210.681L345.202 38.1984L336.654 32.5584L225.195 209.194L300.081 14.1514L290.458 10.6392L222.662 208.271L250.635 1.20492L240.475 0L220 207.964L199.525 0L189.365 1.20492L217.338 208.271L149.542 10.6392L139.919 14.1514L214.805 209.194L103.346 32.5584L94.7976 38.1984L212.552 210.655L63.4458 64.5528L56.4076 72.013L210.71 212.629L31.966 104.879L26.8474 113.775L209.379 214.962L10.6468 151.409L7.70358 161.254L208.585 217.526L0.588646 201.606L0 211.86L208.457 220.218L2.38018 252.776L4.14611 262.877L208.893 222.884L15.8934 302.152L19.9372 311.561L209.993 225.345L40.4118 347.068L46.5286 355.297L211.58 227.499L74.6301 385.138L82.4616 391.726L213.627 229.242L116.654 414.261L125.817 418.85L216.033 230.447L164.258 432.873L174.239 435.232L218.644 231.088L214.881 440H225.119L221.331 231.062L265.761 435.232L275.742 432.873L223.967 230.473L314.183 418.85L323.346 414.261L226.347 229.242L357.538 391.726L365.37 385.138L228.42 227.524L393.471 355.297L399.588 347.068L230.007 225.345L420.037 311.561L424.107 302.152L231.082 222.884L435.828 262.877L437.62 252.776L231.568 220.218L440 211.86Z" fill="#f7fa01"/>
</svg>
