<svg width="324" height="333" viewBox="0 0 324 333" fill="none" xmlns="http://www.w3.org/2000/svg">
<path d="M147.578 332.051L158.953 164.12H165.042L176.416 332.051H147.578Z" fill="#fe3301"/>
<path d="M52.9668 291.912L160.966 162.791L165.849 166.351L76.2901 308.906L52.9668 291.912Z" fill="#fe3301"/>
<path d="M0 203.949L163.32 162.842L165.216 168.64L8.9042 231.335L0 203.949Z" fill="#fe3301"/>
<path d="M8.9042 101.639L165.216 164.334L163.32 170.132L0 129.025L8.9042 101.639Z" fill="#fe3301"/>
<path d="M76.2901 24.0776L165.849 166.633L160.966 170.193L52.9668 41.0143L76.2901 24.0776Z" fill="#fe3301"/>
<path d="M176.416 0.944305L165.042 168.876H158.953L147.578 0.944305H176.416Z" fill="#fe3301"/>
<path d="M271.031 41.0143L163.031 170.193L158.148 166.633L247.707 24.0776L271.031 41.0143Z" fill="#fe3301"/>
<path d="M324.001 129.025L160.681 170.132L158.785 164.334L315.04 101.639L324.001 129.025Z" fill="#fe3301"/>
<path d="M315.097 231.335L158.785 168.64L160.681 162.842L324.001 203.949L315.097 231.335Z" fill="#fe3301"/>
<path d="M247.707 308.906L158.148 166.351L163.031 162.791L271.031 291.969L247.707 308.906Z" fill="#fe3301"/>
</svg>
